<svg xmlns="http://www.w3.org/2000/svg">

<symbol id="c_svgHumberger" viewBox="0 0 44 44" xmlns="http://www.w3.org/2000/svg">
<circle class="c_svgHumberger__fg" cx="22" cy="22" r="21"/>
<circle class="c_svgHumberger__bg" cx="22" cy="22" r="19"/>
</symbol>
<symbol id="c_svgHumberger__line1" viewBox="0 0 44 44" xmlns="http://www.w3.org/2000/svg">
<line class="c_svgHumberger__fg" x1="11" y1="15" x2="33" y2="15" stroke-linecap="round" stroke-width="2"/>
</symbol>
<symbol id="c_svgHumberger__line2" viewBox="0 0 44 44" xmlns="http://www.w3.org/2000/svg">
<line class="c_svgHumberger__fg" x1="11" y1="22" x2="33" y2="22" stroke-linecap="round" stroke-width="2"/>
</symbol>
<symbol id="c_svgHumberger__line3" viewBox="0 0 44 44" xmlns="http://www.w3.org/2000/svg">
<line class="c_svgHumberger__fg" x1="11" y1="29" x2="33" y2="29" stroke-linecap="round" stroke-width="2"/>
</symbol>

<symbol id="c_svgIconShrinkModal" viewBox="0 0 44 44" xmlns="http://www.w3.org/2000/svg">
<circle class="c_svgIconShrinkModal__fg" cx="22" cy="22" r="21"/>
<circle class="c_svgIconShrinkModal__bg" cx="22" cy="22" r="19"/>
<line class="c_svgIconShrinkModal__fg" x1="14" y1="14" x2="29.4" y2="29.4" stroke-linecap="round" stroke-width="2"/>
<line class="c_svgIconShrinkModal__fg" x1="14.2" y1="29.8" x2="29.8" y2="14.2" stroke-linecap="round" stroke-width="2"/>
</symbol>

<symbol id="c_svgLinkIconOpeningNewView" viewBox="0 0 209 209" xmlns="http://www.w3.org/2000/svg" style="fill-rule:evenodd;clip-rule:evenodd;stroke-linecap:round;stroke-linejoin:round;stroke-miterlimit:1.5;">
<title>別タブでページを開く</title>
<path class="c_svgLinkIconOpeningNewView__fg" d="M197.831,115.533l-0,45.165c-0,20.688 -16.796,37.483 -37.483,37.483l-112.449,0c-20.687,0 -37.482,-16.795 -37.482,-37.483l-0,-112.799c-0,-20.687 16.795,-37.482 37.482,-37.482l99.439,-0" style="fill:none;stroke-width:20.83px;"/>
<path class="c_svgLinkIconOpeningNewView__fg" d="M162.318,102.915l35.666,-31.623" style="fill:none;stroke-width:20.83px;"/>
<path class="c_svgLinkIconOpeningNewView__fg" d="M161.935,39.197l36.029,31.944" style="fill:none;stroke-width:20.83px;"/>
<path class="c_svgLinkIconOpeningNewView__fg" d="M174.77,71.303c-49.514,0 -93.642,31.234 -110.104,77.931c16.462,-46.697 60.59,-77.931 110.104,-77.931Z" style="fill:none;stroke-width:20.83px;"/>
<path class="c_svgLinkIconOpeningNewView__fg" d="M117.191,147.334l53.242,0" style="fill:none;stroke-width:10.83px;"/>
<path class="c_svgLinkIconOpeningNewView__fg" d="M143.812,120.713l-0,53.242" style="fill:none;stroke-width:10.73px;"/>
</symbol>

<symbol id="c_svgLinkIcon" viewBox="0 0 209 209" xmlns="http://www.w3.org/2000/svg" style="fill-rule:evenodd;clip-rule:evenodd;stroke-linecap:round;stroke-linejoin:round;stroke-miterlimit:1.5;">
<title>このタブでページを開く</title>
<path class="c_svgLinkIcon__fg" d="M198.398,47.899l-0,112.799c-0,20.688 -16.796,37.483 -37.483,37.483l-112.448,0c-20.688,0 -37.483,-16.795 -37.483,-37.483l-0,-112.799c-0,-20.687 16.795,-37.482 37.483,-37.482l112.448,-0c20.687,-0 37.483,16.795 37.483,37.482Z" style="fill:none;stroke-width:20.83px;"/>
<path class="c_svgLinkIcon__fg" d="M123.18,141.002l41.397,-36.705" style="fill:none;stroke-width:20.83px;"/>
<path class="c_svgLinkIcon__fg" d="M123.059,67.332l41.495,36.79" style="fill:none;stroke-width:20.83px;"/>
<path class="c_svgLinkIcon__fg" d="M164.295,104.268l-119.36,-0" style="fill:none;stroke-width:20.83px;"/>
</symbol>

<symbol id="c_svgToShrinkHF" class="c_svgToggleHFVisible -to_shrink" viewBox="0 0 44 44" xmlns="http://www.w3.org/2000/svg">
<g class="c_svgToggleHFVisible__bg">
<circle cx="22" cy="22" r="22" stroke-width="2"/>
</g>
<g class="c_svgToggleHFVisible__fg">
<line x1="33.5" y1="40" x2="33.5" y2="37" stroke-dasharray="2 2"/>
<line x1="34" y1="37.5" x2="10" y2="37.5" stroke-dasharray="2 2"/>
<line x1="10.5" y1="37" x2="10.5" y2="40" stroke-dasharray="2 2"/>
<line x1="33.5" y1="35" x2="33.5" y2="27"/>
<line x1="34" y1="27.5" x2="10" y2="27.5"/>
<line x1="10.5" y1="27" x2="10.5" y2="35"/>
<path d="M21.6464 35.8536C21.8417 36.0488 22.1583 36.0488 22.3536 35.8536L25.5355 32.6716C25.7308 32.4763 25.7308 32.1597 25.5355 31.9645C25.3403 31.7692 25.0237 31.7692 24.8284 31.9645L22 34.7929L19.1716 31.9645C18.9763 31.7692 18.6597 31.7692 18.4645 31.9645C18.2692 32.1597 18.2692 32.4763 18.4645 32.6716L21.6464 35.8536ZM21.5 29V35.5H22.5V29H21.5Z" stroke-width="0"/>
<line x1="10.5" y1="4" x2="10.5" y2="7" stroke-dasharray="2 2"/>
<line x1="10" y1="6.5" x2="34" y2="6.5" stroke-dasharray="2 2"/>
<line x1="33.5" y1="7" x2="33.5" y2="4" stroke-dasharray="2 2"/>
<line x1="10.5" y1="9" x2="10.5" y2="17"/>
<line x1="10" y1="16.5" x2="34" y2="16.5"/>
<line x1="33.5" y1="17" x2="33.5" y2="9"/>
<path d="M22.3536 8.64645C22.1583 8.45118 21.8417 8.45118 21.6464 8.64645L18.4645 11.8284C18.2692 12.0237 18.2692 12.3403 18.4645 12.5355C18.6597 12.7308 18.9763 12.7308 19.1716 12.5355L22 9.70711L24.8284 12.5355C25.0237 12.7308 25.3403 12.7308 25.5355 12.5355C25.7308 12.3403 25.7308 12.0237 25.5355 11.8284L22.3536 8.64645ZM22.5 15.5V9H21.5V15.5H22.5Z" stroke-width="0"/>
</g>
</symbol>

<symbol id="c_svgToExpandHF" class="c_svgToggleHFVisible -to_expand" viewBox="0 0 44 44" xmlns="http://www.w3.org/2000/svg">
<g class="c_svgToggleHFVisible__bg">
<circle cx="22" cy="22" r="22" stroke-width="2"/>
</g>
<g class="c_svgToggleHFVisible__fg">
<line x1="33.5" y1="40" x2="33.5" y2="37"/>
<line x1="34" y1="37.5" x2="10" y2="37.5"/>
<line x1="10.5" y1="37" x2="10.5" y2="40"/>
<line x1="33.5" y1="35" x2="33.5" y2="27" stroke-dasharray="2 2"/>
<line x1="34" y1="27.5" x2="10" y2="27.5" stroke-dasharray="2 2"/>
<line x1="10.5" y1="27" x2="10.5" y2="35" stroke-dasharray="2 2"/>
<path d="M21.8536 29.1464C21.6583 28.9512 21.3417 28.9512 21.1464 29.1464L17.9645 32.3284C17.7692 32.5237 17.7692 32.8403 17.9645 33.0355C18.1597 33.2308 18.4763 33.2308 18.6716 33.0355L21.5 30.2071L24.3284 33.0355C24.5237 33.2308 24.8403 33.2308 25.0355 33.0355C25.2308 32.8403 25.2308 32.5237 25.0355 32.3284L21.8536 29.1464ZM22 36V29.5H21V36H22Z" stroke-width="0"/>
<line x1="10.5" y1="4" x2="10.5" y2="7"/>
<line x1="10" y1="6.5" x2="34" y2="6.5"/>
<line x1="33.5" y1="7" x2="33.5" y2="4"/>
<line x1="10.5" y1="9" x2="10.5" y2="17" stroke-dasharray="2 2"/>
<line x1="10" y1="16.5" x2="34" y2="16.5" stroke-dasharray="2 2"/>
<line x1="33.5" y1="17" x2="33.5" y2="9" stroke-dasharray="2 2"/>
<path d="M22.1464 14.8536C22.3417 15.0488 22.6583 15.0488 22.8536 14.8536L26.0355 11.6716C26.2308 11.4763 26.2308 11.1597 26.0355 10.9645C25.8403 10.7692 25.5237 10.7692 25.3284 10.9645L22.5 13.7929L19.6716 10.9645C19.4763 10.7692 19.1597 10.7692 18.9645 10.9645C18.7692 11.1597 18.7692 11.4763 18.9645 11.6716L22.1464 14.8536ZM22 8V14.5H23V8H22Z" stroke-width="0"/>
</g>
</symbol>

</svg>